HIERARCHY
ROOT Hips
{
  OFFSET 3.13124 94.3669 -3.18751
  CHANNELS  6 Xposition Yposition Zposition Zrotation Xrotation Yrotation
  JOINT LeftUpLeg
  {
    OFFSET 8.64259 1.95398 -2.38835
    CHANNELS 3 Zrotation Xrotation Yrotation
    JOINT LeftLeg
    {
      OFFSET 43.7702 0 0
      CHANNELS 3 Zrotation Xrotation Yrotation
      JOINT LeftFoot
      {
        OFFSET 40.6238 0 0
        CHANNELS 3 Zrotation Xrotation Yrotation
        JOINT LeftToeBase
        {
          OFFSET 12.7242 0 0
          CHANNELS 3 Zrotation Xrotation Yrotation
          End Site
          {
            OFFSET 0 0 0
          }
        }
      }
    }
  }
  JOINT RightUpLeg
  {
    OFFSET -8.2249 1.95398 -2.59336
    CHANNELS 3 Zrotation Xrotation Yrotation
    JOINT RightLeg
    {
      OFFSET 43.5653 0 0
      CHANNELS 3 Zrotation Xrotation Yrotation
      JOINT RightFoot
      {
        OFFSET 40.6238 0 0
        CHANNELS 3 Zrotation Xrotation Yrotation
        JOINT RightToeBase
        {
          OFFSET 12.7242 0 0
          CHANNELS 3 Zrotation Xrotation Yrotation
          End Site
          {
            OFFSET 0 0 0
          }
        }
      }
    }
  }
  JOINT Spine
  {
    OFFSET 0.165834 0.87714 6.61349
    CHANNELS 3 Zrotation Xrotation Yrotation
    JOINT Spine1
    {
      OFFSET 7.38962 1.71661e-005 0
      CHANNELS 3 Zrotation Xrotation Yrotation
      JOINT Spine2
      {
        OFFSET 11.9445 1.14441e-005 0
        CHANNELS 3 Zrotation Xrotation Yrotation
        JOINT Spine3
        {
          OFFSET 14.7254 4.19617e-005 0
          CHANNELS 3 Zrotation Xrotation Yrotation
          JOINT Spine4
          {
            OFFSET 10.9679 0 0
            CHANNELS 3 Zrotation Xrotation Yrotation
            JOINT RightShoulder
            {
              OFFSET 2.46616 -1.6653 3.69651
              CHANNELS 3 Zrotation Xrotation Yrotation
              JOINT RightArm
              {
                OFFSET 13.0012 0 0
                CHANNELS 3 Zrotation Xrotation Yrotation
                JOINT RightForeArm
                {
                  OFFSET 28.7848 1.52588e-005 0
                  CHANNELS 3 Zrotation Xrotation Yrotation
                  JOINT RightHand
                  {
                    OFFSET 26.5688 1.52588e-005 0
                    CHANNELS 3 Zrotation Xrotation Yrotation
                    End Site
                    {
                      OFFSET 0 0 0
                    }
                  }
                }
              }
            }
            JOINT LeftShoulder
            {
              OFFSET 2.38034 -1.29275 -3.75231
              CHANNELS 3 Zrotation Xrotation Yrotation
              JOINT LeftArm
              {
                OFFSET 16.3182 6.10352e-005 0
                CHANNELS 3 Zrotation Xrotation Yrotation
                JOINT LeftForeArm
                {
                  OFFSET 27.0901 0 0
                  CHANNELS 3 Zrotation Xrotation Yrotation
                  JOINT LeftHand
                  {
                    OFFSET 24.5451 1.52588e-005 0
                    CHANNELS 3 Zrotation Xrotation Yrotation
                    End Site
                    {
                      OFFSET 0 0 0
                    }
                  }
                }
              }
            }
            JOINT Neck
            {
              OFFSET 5.0226 -0.0266342 0
              CHANNELS 3 Zrotation Xrotation Yrotation
              JOINT Head
              {
                OFFSET 6.69363 2.86102e-005 0
                CHANNELS 3 Zrotation Xrotation Yrotation
                End Site
                {
                  OFFSET 0 0 0
                }
              }
            }
          }
        }
      }
    }
  }
}
MOTION
Frames:	7
Frame Time:	0.0333333
-2.51577 97.8033 -3.62985 -104.954 -89.9895 -104.962 -171.052 3.31106 91.9101 -9.97275 8.73492 1.91829 63.9092 1.25696 0.644428 28.7808 4.6056e-006 1.81906e-006 167.999 3.10424 89.7001 -10.0601 -11.8669 -0.593083 63.8788 -1.86618 -0.997715 28.7808 1.43832e-005 2.56328e-005 -0.000560543 6.34021 -89.9932 14.1935 9.3248e-007 7.65919e-007 2.52251 2.64335e-006 -7.43461e-006 -20.0127 -7.492e-007 3.76383e-006 3.68873e-006 5.28532e-009 -4.10915e-009 100.813 -18.5423 -85.5248 11.6455 49.2684 -34.603 -3.27396 0.00468553 -4.91075 -5.37983 -0.320012 -0.016239 -79.0289 -21.503 94.2172 8.05487 -37.7771 -15.5391 2.86342 38.773 -6.82472 -0.913097 -0.0266519 0.642113 1.7403 0.00564225 -0.00260777 -7.40751 0.00062883 0.00742238 
-2.48768 97.7977 -3.65533 -104.679 -89.8264 -104.684 -171.083 3.25067 91.8885 -9.94829 8.568 1.91747 63.9305 1.29041 0.664758 28.7808 4.6056e-006 1.81906e-006 167.992 3.13419 89.6819 -10.1251 -12.0862 -0.607849 63.8035 -1.94488 -1.04145 28.7808 1.43832e-005 2.56328e-005 0.000113739 6.34023 -90.0022 14.1934 -3.54158e-005 6.07155e-005 2.52246 -3.13177e-005 5.47475e-005 -20.0127 -5.36224e-005 4.95211e-005 -4.18999e-005 -5.28734e-005 4.62886e-005 100.784 -18.6422 -85.5912 11.6414 49.2591 -34.5689 -3.27396 0.00468553 -4.91075 -5.37983 -0.320012 -0.016239 -78.9667 -21.4856 94.3868 8.01165 -37.7738 -15.6084 2.9212 38.9476 -6.83992 -1.04155 -0.0330173 0.578754 1.53358 0.0958266 -0.0316284 -7.36558 0.0139662 0.114303 
-2.45916 97.7866 -3.67837 -100.242 -89.6899 -100.23 -171.109 3.18534 91.884 -9.84559 8.49449 1.91563 63.9544 1.48262 0.776708 28.7808 4.6056e-006 1.81906e-006 168.056 3.22028 89.7282 -10.2623 -12.412 -0.693566 63.564 -2.26528 -1.22191 28.7808 1.43832e-005 2.56328e-005 0.00280084 6.33976 -90.0299 14.1944 0.000779031 -0.00118527 2.52344 0.000723778 -0.00121652 -20.0117 0.00109506 -0.000901559 0.000936953 0.00109545 -0.000897256 100.731 -18.6285 -85.6464 11.6863 49.1538 -34.5074 -3.27396 0.00468553 -4.91075 -5.37983 -0.320012 -0.016239 -78.9244 -21.4198 94.5472 7.87839 -37.7812 -15.7137 3.02144 38.9449 -6.89799 -1.20929 -0.0403572 0.567989 1.40573 0.176458 0.131984 -7.46866 0.073225 0.0474911 
-2.45176 97.7972 -3.70131 -104.154 -89.5724 -104.154 -171.076 3.2227 91.8747 -10.0438 8.31322 1.88607 64.0087 1.30026 0.669809 28.7808 4.6056e-006 1.81906e-006 167.948 3.09464 89.6165 -10.074 -12.2328 -0.580571 64.0737 -1.66662 -0.886305 28.7808 1.43832e-005 2.56328e-005 0.0119503 6.32769 -89.9926 14.2185 0.0196909 -0.0341738 2.54753 0.018174 -0.0350205 -19.9876 0.0290507 -0.0266815 0.0250318 0.0290473 -0.026684 100.712 -18.6311 -85.7841 11.5656 49.2726 -34.321 -3.27396 0.00468553 -4.91075 -5.37983 -0.320012 -0.016239 -79.0457 -21.5231 94.1689 8.19761 -37.7726 -15.2846 2.82875 38.7773 -6.821 -0.775845 -0.0196163 0.716928 0.718654 0.112381 0.336277 -6.97278 0.0579769 0.0416766 
-2.43996 97.8045 -3.72255 -109.559 -89.5303 -109.543 -171.073 3.16392 91.8839 -10.0102 8.35176 1.89295 63.9833 1.44351 0.751566 28.7808 4.6056e-006 1.81906e-006 167.96 3.08488 89.6343 -10.1193 -12.3299 -0.596923 63.8925 -1.83673 -0.980993 28.7808 1.43832e-005 2.56328e-005 0.00360941 6.33509 -90.0116 14.2037 -0.0022804 -0.0460566 2.53277 -0.00430064 -0.0459248 -20.0024 0.0116669 -0.0446187 0.0102678 0.0116709 -0.0446123 100.653 -18.5638 -85.9324 11.5523 49.2386 -34.1965 -3.27396 0.00468553 -4.91075 -5.37983 -0.320012 -0.016239 -79.0565 -21.5207 94.1503 8.23396 -37.7893 -15.1878 2.81614 38.6369 -6.82854 -0.770072 -0.0170565 0.881484 0.578266 0.182778 0.594843 -6.93191 0.0932948 -0.0464502 
-2.41595 97.7588 -3.75033 -112.399 -89.5009 -112.342 -171.116 2.9508 91.8905 -9.64247 8.31069 1.87291 64.1666 1.8989 1.01885 28.7808 4.6056e-006 1.81906e-006 167.994 3.25699 89.6986 -10.4949 -12.5698 -0.647971 63.669 -2.31333 -1.24571 28.7808 1.43832e-005 2.56328e-005 0.0108689 6.34905 -90.0874 14.1758 0.00118988 -0.0425487 2.50486 -0.00068891 -0.0425709 -20.0303 0.0139086 -0.0402276 -0.0176429 0.0139235 -0.0402282 100.73 -18.4996 -85.7322 11.7036 49.0198 -34.2784 -3.27396 0.00468553 -4.91075 -5.37983 -0.320012 -0.016239 -79.0175 -21.3622 94.2397 8.04929 -37.7185 -15.3043 2.95529 38.7502 -6.97957 -1.08067 -0.0299005 1.00519 0.81013 0.182096 0.636445 -7.1709 0.0822575 0.0441358 
-2.43084 97.7986 -3.80085 -120.835 -89.5066 -120.802 -171.072 3.15515 91.8868 -10.0812 8.26044 1.89828 64.0277 1.33184 0.688276 28.7808 4.6056e-006 1.81906e-006 167.958 3.02141 89.6184 -10.1066 -12.3103 -0.601807 64.0368 -1.63322 -0.867802 28.7808 1.43832e-005 2.56328e-005 1.58708e-005 6.3472 -90.004 14.1792 -0.00921726 -0.0507829 2.50827 -0.0114369 -0.0503242 -20.0269 0.00646529 -0.0512114 -0.0142349 0.00646938 -0.0512017 100.673 -18.6593 -85.8631 11.5369 49.2088 -34.0762 -3.27396 0.00468553 -4.91075 -5.37983 -0.320012 -0.016239 -79.1228 -21.3438 94.0006 8.19227 -37.782 -15.0892 2.85161 38.7972 -6.83609 -0.509841 -0.00497315 0.888664 0.37621 0.190065 0.619695 -6.73299 0.0946975 0.0681518 
